{"title":"Million.Dollar.Baby.2004.DVDRiP.XviD.SWESUB-Zen_Bud","uid":5910658,"size":735277056,"categoryP":"video","categoryS":"movies","magnet":"?xt=urn:btih:8e8d8bcebd0c7d37ddce6c00bbcddce4a2f994f1&amp;dn=+Million.Dollar.Baby.2004.DVDRiP.XviD.SWESUB-Zen_Bud&amp;tr=udp%3A%2F%2Ftracker.openbittorrent.com%3A80&amp;tr=udp%3A%2F%2Fopen.demonii.com%3A1337&amp;tr=udp%3A%2F%2Ftracker.coppersurfer.tk%3A6969&amp;tr=udp%3A%2F%2Fexodus.desync.com%3A6969","seeders":1,"leechers":0,"uploader":"Zen_Bud","files":-1,"time":1288042770,"description":"***** Million.Dollar.Baby.2004.DVDRiP.XviD.SWESUB-Zen_Bud ******\n\nFormat                           : AVI\nFile size                        : 701 MiB\nDuration                         : 2h 7mn\nOverall bit rate                 : 771 Kbps\nWriting application              : VirtualDubMod 1.5.10.2 (build 2542/release)\nWriting library                  : VirtualDubMod build 2542/release\n\nVideo\n\nCodec ID/Hint                    : XviD\nDuration                         : 2h 7mn\nBit rate                         : 646 Kbps\nWidth                            : 608 pixels\nHeight                           : 256 pixels\nDisplay aspect ratio             : 2.35:1\nStream size                      : 587 MiB (84%)\nWriting library                  : XviD 1.2.1 (UTC 2008-12-04)\n\nAudio\n\nFormat                           : MPEG Audio\nCodec ID/Hint                    : MP3\nDuration                         : 2h 7mn\nBit rate                         : 112 Kbps\nNominal bit rate                 : 128 Kbps\nChannel(s)                       : 2 channels\nSampling rate                    : 48.0 KHz\nStream size                      : 102 MiB (15%)\nWriting library                  : LAME3.97 \n\n\nA hardened trainer/manager works with a determined woman in her attempt to establish herself as a boxer. ","torrent":{"xt":"urn:btih:8e8d8bcebd0c7d37ddce6c00bbcddce4a2f994f1","amp;dn":"+Million.Dollar.Baby.2004.DVDRiP.XviD.SWESUB-Zen_Bud","amp;tr":["udp%3A%2F%2Ftracker.openbittorrent.com%3A80","udp%3A%2F%2Fopen.demonii.com%3A1337","udp%3A%2F%2Ftracker.coppersurfer.tk%3A6969","udp%3A%2F%2Fexodus.desync.com%3A6969"],"infoHash":"8e8d8bcebd0c7d37ddce6c00bbcddce4a2f994f1","infoHashBuffer":{"type":"Buffer","data":[142,141,139,206,189,12,125,55,221,206,108,0,187,205,220,228,162,249,148,241]},"announce":[],"urlList":[]}}